<svg width="96" height="96" xmlns="http://www.w3.org/2000/svg" xmlns:xlink="http://www.w3.org/1999/xlink" xml:space="preserve" overflow="hidden"><defs><clipPath id="clip0"><rect x="544" y="120" width="96" height="96"/></clipPath></defs><g clip-path="url(#clip0)" transform="translate(-544 -120)"><path d="M570.592 167.973C570.596 167.126 570.651 166.281 570.756 165.441L557.226 165.441 557.226 170.441 570.746 170.441C570.647 169.622 570.596 168.798 570.592 167.973Z" fill="#FFC000"/><path d="M592.006 146.559C592.842 146.563 593.677 146.616 594.506 146.718L594.506 133.161 589.506 133.161 589.506 146.718C590.336 146.616 591.17 146.563 592.006 146.559Z" fill="#FFC000"/><path d="M608.78 154.7 618.367 145.114 614.832 141.58 605.24 151.171C606.553 152.206 607.741 153.391 608.78 154.7Z" fill="#FFC000"/><path d="M578.772 151.171 569.181 141.58 565.646 145.115 575.232 154.7C576.271 153.391 577.459 152.206 578.772 151.171Z" fill="#FFC000"/><path d="M605.277 184.748 614.832 194.3 618.367 190.764 608.808 181.205C607.772 182.519 606.587 183.708 605.277 184.748Z" fill="#FFC000"/><path d="M613.256 165.441C613.471 167.1 613.475 168.781 613.266 170.441L626.786 170.441 626.786 165.441Z" fill="#FFC000"/><path d="M592.006 189.388C591.17 189.384 590.336 189.331 589.506 189.229L589.506 202.721 594.506 202.721 594.506 189.229C593.677 189.331 592.842 189.384 592.006 189.388Z" fill="#FFC000"/><path d="M575.2 181.208 565.642 190.766 569.181 194.3 578.734 184.747C577.423 183.708 576.237 182.52 575.2 181.208Z" fill="#FFC000"/><path d="M609.42 167.973C609.42 177.59 601.623 185.387 592.006 185.387 582.388 185.387 574.592 177.59 574.592 167.973 574.592 158.355 582.388 150.559 592.006 150.559 601.623 150.559 609.42 158.355 609.42 167.973Z" fill="#FFC000"/></g></svg>